<?xml version="1.0" standalone="no"?>
<!DOCTYPE svg PUBLIC "-//W3C//DTD SVG 20010904//EN"
 "http://www.w3.org/TR/2001/REC-SVG-20010904/DTD/svg10.dtd">
<svg version="1.0" xmlns="http://www.w3.org/2000/svg"
 width="317.000000pt" height="159.000000pt" viewBox="0 0 317.000000 159.000000"
 preserveAspectRatio="xMidYMid meet">
<metadata>
Created by potrace 1.16, written by Peter Selinger 2001-2019
</metadata>
<g transform="translate(0.000000,159.000000) scale(0.100000,-0.100000)"
fill="#000000" stroke="none">
<path d="M7 1583 c-4 -3 -7 -228 -7 -500 l0 -493 100 0 c95 0 101 1 131 28 40
36 48 78 49 265 0 141 1 149 23 170 13 12 32 27 43 34 19 12 19 12 -2 12 -11
1 -30 11 -41 24 -19 20 -21 37 -25 198 -5 200 -15 234 -78 256 -37 13 -182 17
-193 6z"/>
<path d="M615 1583 c-11 -3 -28 -12 -39 -22 -38 -33 -46 -74 -46 -233 0 -133
-3 -157 -19 -185 -11 -17 -29 -34 -40 -38 -28 -9 -26 -17 9 -37 17 -9 35 -29
40 -43 6 -15 10 -96 10 -181 0 -232 16 -254 180 -254 l90 0 0 500 0 500 -82
-1 c-46 -1 -92 -4 -103 -6z"/>
<path d="M1190 1250 c-110 -28 -203 -97 -248 -185 -37 -72 -42 -179 -12 -258
73 -194 351 -291 555 -192 51 25 135 90 135 105 0 4 -26 -3 -57 -15 -127 -51
-242 -53 -321 -5 -42 26 -59 67 -68 163 l-7 77 257 0 257 0 -6 38 c-11 63 -63
159 -107 197 -63 54 -136 78 -248 81 -52 2 -111 -1 -130 -6z m169 -45 c38 -33
63 -99 65 -172 l1 -58 -124 -7 c-69 -4 -127 -6 -129 -3 -3 2 1 39 7 81 23 154
102 224 180 159z"/>
<path d="M2173 1249 c-39 -11 -99 -79 -124 -139 l-18 -45 0 92 -1 93 -47 -19
c-47 -18 -111 -34 -184 -46 l-36 -5 13 -38 c10 -27 13 -106 14 -294 l0 -258
84 0 c142 0 156 25 156 275 0 174 8 204 63 240 48 31 117 -14 117 -75 0 -26 2
-27 33 -21 76 18 107 53 107 122 0 55 -26 94 -76 115 -38 16 -55 16 -101 3z"/>
<path d="M2639 1237 c-149 -51 -231 -148 -246 -287 -23 -227 199 -409 451
-370 141 22 245 92 295 199 35 76 36 191 2 269 -31 70 -121 153 -198 183 -88
34 -218 37 -304 6z m190 -22 c60 -31 85 -134 78 -324 -5 -155 -22 -216 -69
-256 -59 -49 -127 -19 -157 71 -18 54 -26 307 -12 374 27 127 84 175 160 135z"/>
<path d="M530 140 l0 -130 61 0 c113 0 166 47 157 142 -8 81 -61 118 -170 118
l-48 0 0 -130z m156 85 c29 -19 48 -68 40 -108 -10 -52 -46 -80 -111 -85 l-55
-4 0 112 0 113 53 -7 c28 -4 61 -13 73 -21z"/>
<path d="M940 141 c0 -111 2 -131 15 -131 13 0 15 18 13 127 -2 90 -7 128 -15
131 -10 3 -13 -27 -13 -127z"/>
<path d="M1214 251 c-67 -41 -78 -149 -21 -206 39 -39 87 -51 145 -35 l42 11
0 64 0 65 -40 0 c-22 0 -40 -4 -40 -10 0 -5 14 -10 31 -10 30 0 30 -1 27 -47
-3 -44 -5 -47 -36 -55 -43 -11 -95 5 -122 39 -39 50 -19 147 35 171 36 16 86
15 112 -3 13 -9 24 -11 28 -6 10 17 -39 41 -85 41 -26 0 -58 -8 -76 -19z"/>
<path d="M1590 140 c0 -80 4 -130 10 -130 6 0 10 50 10 130 0 80 -4 130 -10
130 -6 0 -10 -50 -10 -130z"/>
<path d="M1790 261 c0 -6 19 -11 43 -13 l42 -3 3 -117 c1 -65 7 -118 12 -118
5 0 11 53 12 118 l3 117 43 3 c83 6 41 22 -58 22 -56 0 -100 -4 -100 -9z"/>
<path d="M2206 238 c-8 -18 -33 -75 -55 -126 -46 -103 -45 -102 -30 -102 5 0
17 16 25 35 l14 35 69 0 69 0 12 -35 c6 -19 18 -35 26 -35 11 0 10 9 -5 48
-51 126 -89 206 -99 210 -7 2 -19 -11 -26 -30z m53 -69 c13 -33 21 -62 18 -65
-3 -3 -27 -4 -55 -2 l-50 3 26 63 c14 34 28 62 31 62 3 0 17 -27 30 -61z"/>
<path d="M2527 263 c-4 -3 -7 -62 -7 -130 l0 -123 75 0 c43 0 75 4 75 10 0 6
-27 10 -60 10 l-60 0 0 120 c0 110 -5 132 -23 113z"/>
</g>
</svg>
