<?xml version="1.0" encoding="UTF-8" standalone="no"?>
<!-- Created with Inkscape (http://www.inkscape.org/) -->

<svg
   xmlns:dc="http://purl.org/dc/elements/1.1/"
   xmlns:cc="http://creativecommons.org/ns#"
   xmlns:rdf="http://www.w3.org/1999/02/22-rdf-syntax-ns#"
   xmlns:svg="http://www.w3.org/2000/svg"
   xmlns="http://www.w3.org/2000/svg"
   xmlns:sodipodi="http://sodipodi.sourceforge.net/DTD/sodipodi-0.dtd"
   xmlns:inkscape="http://www.inkscape.org/namespaces/inkscape"
   width="118mm"
   height="118mm"
   viewBox="0 0 118 118"
   version="1.1"
   id="svg8"
   sodipodi:docname="js-square-brands.svg"
   inkscape:version="0.92.4 (5da689c313, 2019-01-14)">
  <defs
     id="defs2" />
  <sodipodi:namedview
     id="base"
     pagecolor="#ffffff"
     bordercolor="#666666"
     borderopacity="1.0"
     inkscape:pageopacity="0.0"
     inkscape:pageshadow="2"
     inkscape:zoom="0.35"
     inkscape:cx="-75.714286"
     inkscape:cy="560"
     inkscape:document-units="mm"
     inkscape:current-layer="layer1"
     showgrid="false"
     inkscape:window-width="1920"
     inkscape:window-height="1017"
     inkscape:window-x="-8"
     inkscape:window-y="-8"
     inkscape:window-maximized="1" />
  <metadata
     id="metadata5">
    <rdf:RDF>
      <cc:Work
         rdf:about="">
        <dc:format>image/svg+xml</dc:format>
        <dc:type
           rdf:resource="http://purl.org/dc/dcmitype/StillImage" />
        <dc:title></dc:title>
      </cc:Work>
    </rdf:RDF>
  </metadata>
  <g
     inkscape:label="Layer 1"
     inkscape:groupmode="layer"
     id="layer1"
     transform="translate(0,-179)">
    <path
       id="path825"
       d="M 107.04285,179.525 H 13.909521 c -7.0114496,0 -12.6999996,5.68854 -12.6999996,12.7 v 93.13334 c 0,7.01146 5.68855,12.7 12.6999996,12.7 h 93.133329 c 7.01146,0 12.7,-5.68854 12.7,-12.7 V 192.225 c 0,-7.01146 -5.68854,-12.7 -12.7,-12.7 z m -41.327909,92.44542 c 0,11.53584 -6.77333,16.80104 -16.64229,16.80104 -8.91646,0 -14.07583,-4.60375 -16.72167,-10.18645 l 9.07521,-5.47688 c 1.74625,3.09563 3.33375,5.715 7.17021,5.715 3.65125,0 5.97958,-1.42875 5.97958,-7.01146 v -37.86188 h 11.13896 z m 26.3525,16.80104 c -10.34521,0 -17.03917,-4.92125 -20.29354,-11.37708 l 9.07521,-5.23875 c 2.38125,3.88938 5.50333,6.77333 10.98021,6.77333 4.60375,0 7.56708,-2.30187 7.56708,-5.50333 0,-3.81 -3.01625,-5.15938 -8.12271,-7.40834 l -2.77812,-1.19062 c -8.04334,-3.41313 -13.36146,-7.72584 -13.36146,-16.80104 0,-8.36084 6.37646,-14.71084 16.29833,-14.71084 7.09083,0 12.170829,2.46063 15.822079,8.91646 l -8.678329,5.55625 c -1.905,-3.41312 -3.96875,-4.7625 -7.17021,-4.7625 -3.25437,0 -5.31812,2.06375 -5.31812,4.7625 0,3.33375 2.06375,4.68313 6.85271,6.77333 l 2.77812,1.19063 c 9.472079,4.04812 14.790199,8.20208 14.790199,17.51542 0,10.00125 -7.88458,15.50458 -18.441449,15.50458 z"
       inkscape:connector-curvature="0"
       style="fill:#f7df00;fill-opacity:1;stroke-width:0.26458332" />
    <path
       style="opacity:1;fill:#000000;fill-opacity:1;stroke:#1c1722;stroke-width:0;stroke-linecap:round;stroke-miterlimit:4;stroke-dasharray:none;stroke-dashoffset:0;stroke-opacity:1"
       d="m 42.302785,287.39838 c -2.714164,-0.86558 -9.116475,-6.43881 -9.116475,-7.93593 0,-0.47485 1.784548,-2.00349 3.965662,-3.39698 l 3.965662,-2.5336 1.488933,1.94448 c 1.846241,2.41112 2.598062,2.97062 4.768521,3.5487 2.67425,0.71227 6.016853,-1.06221 6.928821,-3.67829 0.489075,-1.40296 0.805019,-9.97888 0.805019,-21.85123 v -19.54196 h 5.352341 5.352338 l -0.252,21.73363 c -0.237712,20.50123 -0.343757,21.9051 -1.870114,24.75744 -2.04859,3.82825 -3.953764,5.54629 -7.587584,6.84227 -3.419252,1.21946 -10.156203,1.27387 -13.801124,0.11147 z"
       id="path865"
       inkscape:connector-curvature="0" />
    <path
       style="opacity:1;fill:#000000;fill-opacity:1;stroke:#1c1722;stroke-width:0;stroke-linecap:round;stroke-miterlimit:4;stroke-dasharray:none;stroke-dashoffset:0;stroke-opacity:1"
       d="m 83.608508,287.2064 c -3.797977,-1.21401 -11.524292,-7.79477 -10.999631,-9.36875 0.153186,-0.45956 2.052412,-1.84867 4.220503,-3.08692 l 3.941983,-2.25136 1.216519,1.85664 c 3.145923,4.80129 12.026408,6.26235 15.90666,2.61704 4.018908,-3.77556 1.710971,-7.329 -7.553854,-11.63036 -3.785952,-1.75769 -8.037534,-4.16742 -9.447961,-5.35494 -7.365196,-6.20119 -7.000084,-18.39925 0.70331,-23.49712 3.415448,-2.26024 10.126258,-3.21112 15.520453,-2.19916 2.568072,0.48177 9.3972,5.78524 9.3972,7.29782 0,0.35177 -1.71765,1.79632 -3.81701,3.21011 l -3.817004,2.57053 -2.172462,-2.17247 c -4.150548,-4.15054 -10.604238,-2.40231 -10.604238,2.87258 0,2.9406 1.147638,3.89267 9.827379,8.15273 3.949851,1.93861 8.282925,4.58733 9.629045,5.88605 7.39924,7.13868 5.68069,19.70472 -3.28866,24.04672 -4.598421,2.22605 -13.42994,2.72335 -18.662232,1.05086 z"
       id="path867"
       inkscape:connector-curvature="0" />
  </g>
</svg>
